<svg xmlns="http://www.w3.org/2000/svg" xmlns:xlink="http://www.w3.org/1999/xlink" width="60" zoomAndPan="magnify" viewBox="0 0 45 30.750001" height="41" preserveAspectRatio="xMidYMid meet" version="1.0"><defs><clipPath id="fbb07be281"><path d="M 1.058594 2.113281 L 44.207031 2.113281 L 44.207031 28.152344 L 1.058594 28.152344 Z M 1.058594 2.113281 " clip-rule="nonzero"/></clipPath></defs><g clip-path="url(#fbb07be281)"><path fill="#ffffff" d="M 44.207031 28.144531 L 36.070312 28.144531 L 30.148438 18.644531 L 29.113281 16.984375 L 29.113281 28.144531 L 22.128906 28.144531 L 22.113281 17.976562 L 21.082031 19.414062 L 15.117188 27.707031 L 15.070312 27.707031 L 7.996094 17.917969 L 7.996094 28.128906 L 1.058594 28.128906 L 1.058594 2.121094 L 3.847656 2.121094 L 15.085938 17.277344 L 21.082031 9.191406 L 22.113281 7.792969 L 22.113281 7.75 L 26.085938 2.367188 L 29.113281 2.367188 L 29.113281 13.683594 L 30.148438 13.683594 L 31.890625 13.699219 C 33.367188 13.714844 34.710938 12.695312 34.710938 11.109375 C 34.710938 9.507812 33.351562 8.519531 31.890625 8.519531 L 30.148438 8.519531 L 30.148438 2.351562 L 32.039062 2.351562 C 37.695312 2.351562 41.726562 6.105469 41.726562 10.730469 C 41.726562 13.945312 39.761719 16.636719 37.191406 17.785156 Z M 44.207031 28.144531 " fill-opacity="1" fill-rule="nonzero"/></g></svg>